#Comment line ignore any data following # character 
#Hierarchical Translation and Rotation (.htr) file 
[Header]	
#Header keywords are followed by a single value 
FileType HTR		#Single word string
DataType HTRS		#Translation followed by rotation and scale data
FileVersion 1		#integer
NumSegments 64		#integer
NumFrames 3		#integer
DataFrameRate 30		#integer, data frame rate in this file
EulerRotationOrder ZYX
CalibrationUnits mm
RotationUnits Degrees
GlobalAxisofGravity Y
BoneLengthAxis Y
ScaleFactor 1.00
[SegmentNames&Hierarchy]
#CHILD	PARENT
Pinger_Root GLOBAL
Pelvis Pinger_Root
L_Hip Pelvis
R_Hip Pelvis
Rear_Leg01 Pelvis
Spine1 Pelvis
L_Leg01 L_Hip
L_Leg02 L_Leg01
L_Leg03 L_Leg02
L_Foot L_Leg03
L_Toe1_01 L_Foot
L_Toe2_01 L_Foot
L_Toe3_01 L_Foot
planeAlignerLeft L_Foot
L_Toe1_02 L_Toe1_01
L_Toe1_03 L_Toe1_02
L_Toe2_02 L_Toe2_01
L_Toe2_03 L_Toe2_02
L_Toe3_02 L_Toe3_01
L_Toe3_03 L_Toe3_02
planeLockWeightLeft planeAlignerLeft
R_Leg01 R_Hip
R_Leg02 R_Leg01
R_Leg03 R_Leg02
R_Foot R_Leg03
planeAlignerRight R_Foot
R_Toe1_01 R_Foot
R_Toe2_01 R_Foot
R_Toe3_01 R_Foot
planeLockWeightRight planeAlignerRight
R_Toe1_02 R_Toe1_01
R_Toe1_03 R_Toe1_02
R_Toe2_02 R_Toe2_01
R_Toe2_03 R_Toe2_02
R_Toe3_02 R_Toe3_01
R_Toe3_03 R_Toe3_02
Rear_Leg02 Rear_Leg01
Rear_Leg03 Rear_Leg02
Rear_Leg04 Rear_Leg03
Rear_Foot Rear_Leg04
planeAlignerCenter Rear_Foot
Rear_Toe1_01 Rear_Foot
Rear_Toe2_01 Rear_Foot
Rear_Toe3_01 Rear_Foot
planeLockWeightCenter planeAlignerCenter
Rear_Toe1_02 Rear_Toe1_01
Rear_Toe1_03 Rear_Toe1_02
Rear_Toe2_02 Rear_Toe2_01
Rear_Toe2_03 Rear_Toe2_02
Rear_Toe3_02 Rear_Toe3_01
Rear_Toe3_03 Rear_Toe3_02
Back_Bone Spine1
Head Spine1
Motor_Bone Back_Bone
Ping_Mechanism Back_Bone
BN_LookIK Head
bottomMouth Head
L_Mouth01 Head
L_mouthFront Head
mouthGun Head
R_Mouth01 Head
R_mouthFront Head
TopMouth Head
weapon_bone Head
[BasePosition]
#SegmentName Tx, Ty, Tz, Rx, Ry, Rz, BoneLength
Pinger_Root 0.000000 0.000000 0.000000 -90.000000 0.000000 0.000000 10.000000 
Pelvis 0.000000 0.000000 0.000000 0.000000 0.000000 0.000000 10.000000 
L_Hip 0.000000 0.000000 0.000000 0.000000 0.000000 0.000000 10.000000 
R_Hip 0.000000 0.000000 0.000000 0.000000 0.000000 0.000000 10.000000 
Rear_Leg01 0.000000 0.000000 0.000000 0.000000 0.000000 0.000000 10.000000 
Spine1 0.000000 0.000000 0.000000 0.000000 0.000000 0.000000 10.000000 
L_Leg01 0.000000 0.000000 0.000000 0.000000 0.000000 0.000000 10.000000 
L_Leg02 0.000000 0.000000 0.000000 0.000000 0.000000 0.000000 10.000000 
L_Leg03 0.000000 0.000000 0.000000 0.000000 0.000000 0.000000 10.000000 
L_Foot 0.000000 0.000000 0.000000 0.000000 0.000000 0.000000 10.000000 
L_Toe1_01 0.000000 0.000000 0.000000 0.000000 0.000000 0.000000 10.000000 
L_Toe2_01 0.000000 0.000000 0.000000 0.000000 0.000000 0.000000 10.000000 
L_Toe3_01 0.000000 0.000000 0.000000 0.000000 0.000000 0.000000 10.000000 
planeAlignerLeft 0.000000 0.000000 0.000000 0.000000 0.000000 0.000000 10.000000 
L_Toe1_02 0.000000 0.000000 0.000000 0.000000 0.000000 0.000000 10.000000 
L_Toe1_03 0.000000 0.000000 0.000000 0.000000 0.000000 0.000000 10.000000 
L_Toe2_02 0.000000 0.000000 0.000000 0.000000 0.000000 0.000000 10.000000 
L_Toe2_03 0.000000 0.000000 0.000000 0.000000 0.000000 0.000000 10.000000 
L_Toe3_02 0.000000 0.000000 0.000000 0.000000 0.000000 0.000000 10.000000 
L_Toe3_03 0.000000 0.000000 0.000000 0.000000 0.000000 0.000000 10.000000 
planeLockWeightLeft 0.000000 0.000000 0.000000 0.000000 0.000000 0.000000 10.000000 
R_Leg01 0.000000 0.000000 0.000000 0.000000 0.000000 0.000000 10.000000 
R_Leg02 0.000000 0.000000 0.000000 0.000000 0.000000 0.000000 10.000000 
R_Leg03 0.000000 0.000000 0.000000 0.000000 0.000000 0.000000 10.000000 
R_Foot 0.000000 0.000000 0.000000 0.000000 0.000000 0.000000 10.000000 
planeAlignerRight 0.000000 0.000000 0.000000 0.000000 0.000000 0.000000 10.000000 
R_Toe1_01 0.000000 0.000000 0.000000 0.000000 0.000000 0.000000 10.000000 
R_Toe2_01 0.000000 0.000000 0.000000 0.000000 0.000000 0.000000 10.000000 
R_Toe3_01 0.000000 0.000000 0.000000 0.000000 0.000000 0.000000 10.000000 
planeLockWeightRight 0.000000 0.000000 0.000000 0.000000 0.000000 0.000000 10.000000 
R_Toe1_02 0.000000 0.000000 0.000000 0.000000 0.000000 0.000000 10.000000 
R_Toe1_03 0.000000 0.000000 0.000000 0.000000 0.000000 0.000000 10.000000 
R_Toe2_02 0.000000 0.000000 0.000000 0.000000 0.000000 0.000000 10.000000 
R_Toe2_03 0.000000 0.000000 0.000000 0.000000 0.000000 0.000000 10.000000 
R_Toe3_02 0.000000 0.000000 0.000000 0.000000 0.000000 0.000000 10.000000 
R_Toe3_03 0.000000 0.000000 0.000000 0.000000 0.000000 0.000000 10.000000 
Rear_Leg02 0.000000 0.000000 0.000000 0.000000 0.000000 0.000000 10.000000 
Rear_Leg03 0.000000 0.000000 0.000000 0.000000 0.000000 0.000000 10.000000 
Rear_Leg04 0.000000 0.000000 0.000000 0.000000 0.000000 0.000000 10.000000 
Rear_Foot 0.000000 0.000000 0.000000 0.000000 0.000000 0.000000 10.000000 
planeAlignerCenter 0.000000 0.000000 0.000000 0.000000 0.000000 0.000000 10.000000 
Rear_Toe1_01 0.000000 0.000000 0.000000 0.000000 0.000000 0.000000 10.000000 
Rear_Toe2_01 0.000000 0.000000 0.000000 0.000000 0.000000 0.000000 10.000000 
Rear_Toe3_01 0.000000 0.000000 0.000000 0.000000 0.000000 0.000000 10.000000 
planeLockWeightCenter 0.000000 0.000000 0.000000 0.000000 0.000000 0.000000 10.000000 
Rear_Toe1_02 0.000000 0.000000 0.000000 0.000000 0.000000 0.000000 10.000000 
Rear_Toe1_03 0.000000 0.000000 0.000000 0.000000 0.000000 0.000000 10.000000 
Rear_Toe2_02 0.000000 0.000000 0.000000 0.000000 0.000000 0.000000 10.000000 
Rear_Toe2_03 0.000000 0.000000 0.000000 0.000000 0.000000 0.000000 10.000000 
Rear_Toe3_02 0.000000 0.000000 0.000000 0.000000 0.000000 0.000000 10.000000 
Rear_Toe3_03 0.000000 0.000000 0.000000 0.000000 0.000000 0.000000 10.000000 
Back_Bone 0.000000 0.000000 0.000000 0.000000 0.000000 0.000000 10.000000 
Head 0.000000 0.000000 0.000000 0.000000 0.000000 0.000000 10.000000 
Motor_Bone 0.000000 0.000000 0.000000 0.000000 0.000000 0.000000 10.000000 
Ping_Mechanism 0.000000 0.000000 0.000000 0.000000 0.000000 0.000000 10.000000 
BN_LookIK 0.000000 0.000000 0.000000 0.000000 0.000000 0.000000 10.000000 
bottomMouth 0.000000 0.000000 0.000000 0.000000 0.000000 0.000000 10.000000 
L_Mouth01 0.000000 0.000000 0.000000 0.000000 0.000000 0.000000 10.000000 
L_mouthFront 0.000000 0.000000 0.000000 0.000000 0.000000 0.000000 10.000000 
mouthGun 0.000000 0.000000 0.000000 0.000000 0.000000 0.000000 10.000000 
R_Mouth01 0.000000 0.000000 0.000000 0.000000 0.000000 0.000000 10.000000 
R_mouthFront 0.000000 0.000000 0.000000 0.000000 0.000000 0.000000 10.000000 
TopMouth 0.000000 0.000000 0.000000 0.000000 0.000000 0.000000 10.000000 
weapon_bone 0.000000 0.000000 0.000000 0.000000 0.000000 0.000000 10.000000 
#Beginning of Data. Separated by tabs
#Fr	Tx	Ty	Tz	Rx	Ry	Rz	SF
[Pinger_Root]
1 0.000000 0.000000 0.000000 -0.000075 -0.000000 -0.000020 0.000000
2 -0.000001 73.411224 0.000000 -0.000075 -0.000000 -0.000020 73.411224
3 -0.000001 150.553940 0.000000 -0.000075 -0.000000 -0.000020 150.553940
[Pelvis]
1 186.347488 1367.603271 5059.365234 -102.028679 -77.097267 92.784882 5244.257813
2 102.345482 1302.679810 5059.149414 -103.631142 -78.571732 94.438812 5225.173828
3 28.912111 1249.537720 5058.340332 -109.567635 -82.266327 100.519722 5210.469238
[L_Hip]
1 5.766392 125.831482 872.656799 -178.253311 -81.787758 87.381340 881.701050
2 5.766392 125.831482 872.656799 -178.253326 -81.787712 87.381294 881.701050
3 5.766392 125.831482 872.656799 -178.253296 -81.787758 87.381302 881.701050
[R_Hip]
1 5.765438 125.836372 -872.654907 -1.746690 81.787712 87.381248 881.699829
2 5.765438 125.836372 -872.654907 -1.746702 81.787712 87.381203 881.699829
3 5.765438 125.836372 -872.654907 -1.746714 81.787712 87.381248 881.699829
[Rear_Leg01]
1 -192.298416 -925.602966 -0.001907 172.255630 5.252155 -144.759598 945.367432
2 -192.298416 -925.602966 -0.001907 171.776428 6.163588 -150.392776 945.367432
3 -192.298416 -925.602966 -0.001907 171.384155 7.753271 -152.877441 945.367432
[Spine1]
1 290.604584 5.007505 0.000477 10.228071 -2.145823 16.264891 290.647736
2 290.604584 5.007505 0.000477 10.304107 -2.152719 17.841202 290.647736
3 290.604584 5.007505 0.000477 10.433885 -2.257673 21.821421 290.647736
[L_Leg01]
1 761.932007 -0.002384 -0.069261 60.173962 -19.375013 -63.368584 761.932068
2 761.932007 -0.002384 -0.069261 60.593056 -19.629101 -63.975304 761.932068
3 761.932007 -0.002384 -0.069261 61.950180 -18.643957 -64.862213 761.932068
[L_Leg02]
1 1441.140503 -0.000954 -0.000715 -1.404184 0.417757 -98.925835 1441.140503
2 1441.140503 -0.000954 -0.000715 -1.348084 0.412661 -101.287582 1441.140503
3 1441.140503 -0.000954 -0.000715 -1.331012 0.451587 -103.947449 1441.140503
[L_Leg03]
1 1686.963989 -0.000715 -0.000954 0.019226 -0.005988 104.598404 1686.963989
2 1686.963989 -0.000715 -0.000954 0.019230 -0.005973 104.510864 1686.963989
3 1686.963989 -0.000715 -0.000954 0.026236 -0.006589 103.342918 1686.963989
[L_Foot]
1 3041.570068 -30.715107 11.297464 -17.703213 16.160219 61.949387 3041.746094
2 3041.570068 -30.715107 11.297464 -16.612072 16.219481 63.379616 3041.746094
3 3041.570068 -30.715107 11.297464 -15.702938 16.381460 65.485397 3041.746094
[L_Toe1_01]
1 -188.216690 -224.732346 -21.137953 89.699348 -3.374833 -165.449051 293.899567
2 -188.216690 -224.732346 -21.137953 89.712082 -3.434679 -165.433182 293.899567
3 -188.216690 -224.732346 -21.137953 89.724831 -3.494528 -165.417328 293.899567
[L_Toe2_01]
1 200.746536 -219.926590 148.838394 -77.584976 -14.474025 -44.187046 332.896027
2 200.746536 -219.926590 148.838394 -77.565712 -14.420163 -44.299782 332.896027
3 200.746536 -219.926590 148.838394 -77.546547 -14.366260 -44.412472 332.896027
[L_Toe3_01]
1 188.832520 -219.859131 -191.078659 -105.094337 14.710049 -44.951870 347.140900
2 188.832520 -219.859131 -191.078659 -105.055313 14.347095 -45.080677 347.140900
3 188.832520 -219.859131 -191.078659 -105.134552 14.542623 -45.196140 347.140900
[planeAlignerLeft]
1 -12.037048 -606.276367 27.301331 0.000000 -90.000000 -90.001633 607.010132
2 -5.312347 -607.898804 30.375059 0.000000 -90.000000 -90.004288 608.680420
3 -7.562131 -609.162354 28.463591 0.000000 -90.000000 -90.006950 609.873840
[L_Toe1_02]
1 413.761139 0.000477 0.000000 0.001412 -22.421448 0.001412 413.761139
2 413.761139 0.000477 0.000000 0.001412 -22.418085 0.001412 413.761139
3 413.761139 0.000477 0.000000 0.001412 -22.414724 0.001412 413.761139
[L_Toe1_03]
1 464.317322 0.000358 -0.000089 0.015052 81.056046 0.015052 464.317322
2 464.317322 0.000358 -0.000089 0.016627 81.904610 0.016627 464.317322
3 464.317322 0.000358 -0.000089 0.015836 81.499893 0.015836 464.317322
[L_Toe2_02]
1 342.235809 -0.000477 0.000238 0.001180 -77.741257 0.001180 342.235809
2 342.235809 -0.000477 0.000238 0.001181 -77.601677 0.001181 342.235809
3 342.235809 -0.000477 0.000238 0.001181 -77.462029 0.001181 342.235809
[L_Toe2_03]
1 420.210846 -0.000715 0.000000 -179.996613 77.155922 -179.993103 420.210846
2 420.210846 -0.000715 0.000000 -179.996063 78.414101 -179.992554 420.210846
3 420.210846 -0.000715 0.000000 -179.996109 78.324768 -179.992584 420.210846
[L_Toe3_02]
1 329.270111 0.000954 0.000000 0.001177 -81.880569 0.001177 329.270111
2 329.270111 0.000954 0.000000 0.001177 -81.864220 0.001177 329.270111
3 329.270111 0.000954 0.000000 0.001177 -81.847847 0.001177 329.270111
[L_Toe3_03]
1 439.137451 -0.001907 0.000954 -179.997986 72.516495 -179.994446 439.137451
2 439.137451 -0.001907 0.000954 -179.997787 73.377525 -179.994263 439.137451
3 439.137451 -0.001907 0.000954 -179.997818 73.282013 -179.994278 439.137451
[planeLockWeightLeft]
1 1000.000122 -0.000229 -0.000372 -0.011826 -0.004376 0.005620 1000.000122
2 1000.000122 -0.000236 -0.000365 -0.011826 -0.004376 0.005620 1000.000122
3 1000.000122 -0.000244 -0.000359 -0.011826 -0.004376 0.005620 1000.000122
[R_Leg01]
1 761.455627 -0.001907 -0.000358 93.849335 -16.297029 80.646240 761.455688
2 761.455627 -0.001907 -0.000358 93.592598 -14.356003 80.028923 761.455688
3 761.455627 -0.001907 -0.000358 92.817924 -9.186720 80.017448 761.455688
[R_Leg02]
1 1441.140625 0.000000 -0.000238 0.183950 -0.025004 -97.712723 1441.140625
2 1441.140625 0.000000 -0.000238 0.186829 -0.024346 -95.834023 1441.140625
3 1441.140625 0.000000 -0.000238 0.191012 -0.015816 -92.059692 1441.140625
[R_Leg03]
1 1686.963989 0.000954 0.001431 -0.063862 0.011852 92.438484 1686.963989
2 1686.963989 0.000954 0.001431 -0.067442 0.014714 91.233635 1686.963989
3 1686.963989 0.000954 0.001431 -0.074643 0.013699 89.557922 1686.963989
[R_Foot]
1 3041.560059 -30.531288 -11.204481 11.021991 -21.924694 86.373962 3041.734131
2 3041.560059 -30.531288 -11.204481 12.035425 -22.020802 85.728348 3041.734131
3 3041.560059 -30.531288 -11.204481 12.736505 -22.257854 84.697884 3041.734131
[planeAlignerRight]
1 -0.984192 -688.346863 0.347595 0.000000 -89.951546 -90.004936 688.347656
2 -8.336486 -664.699646 4.737854 0.000000 -89.944046 -90.006844 664.768799
3 -26.124420 -620.786072 14.811401 0.000000 -89.955765 -90.008751 621.512024
[R_Toe1_01]
1 -188.383347 -224.864899 21.052242 90.711693 1.939960 -159.553543 294.101532
2 -188.383347 -224.864899 21.052242 90.694534 1.724714 -161.163742 294.101532
3 -188.383347 -224.864899 21.052242 90.698975 1.207989 -163.896088 294.101532
[R_Toe2_01]
1 200.637817 -220.002121 -148.787384 -103.205162 11.342172 -50.095257 332.857574
2 200.637817 -220.002121 -148.787384 -102.803520 11.652453 -48.187523 332.857574
3 200.637817 -220.002121 -148.787384 -101.951218 12.190489 -44.390160 332.857574
[R_Toe3_01]
1 188.606735 -220.092957 191.126343 -72.745293 -14.068610 -51.996883 347.192566
2 188.606735 -220.092957 191.126343 -73.079262 -14.996921 -50.272850 347.192566
3 188.606735 -220.092957 191.126343 -73.734314 -16.976099 -46.917480 347.192566
[planeLockWeightRight]
1 1000.000000 0.000153 -0.000172 -0.011823 -0.004379 -0.000027 1000.000000
2 999.999939 0.000153 -0.000176 -0.011823 -0.004379 -0.000027 999.999939
3 999.999817 0.000153 -0.000181 -0.011823 -0.004379 -0.000027 999.999817
[R_Toe1_02]
1 413.762085 0.000477 -0.000119 0.001404 -23.390312 0.001404 413.762085
2 413.762085 0.000477 -0.000119 0.001406 -23.228745 0.001406 413.762085
3 413.762085 0.000477 -0.000119 0.001407 -23.067175 0.001407 413.762085
[R_Toe1_03]
1 464.317810 0.000000 0.001088 0.010088 76.638115 0.010088 464.317810
2 464.317810 0.000000 0.001088 0.010732 77.443230 0.010732 464.317810
3 464.317810 0.000000 0.001088 0.011464 78.248245 0.011464 464.317810
[R_Toe2_02]
1 342.234741 -0.000954 0.000238 -0.002342 -75.466133 -0.002342 342.234741
2 342.234741 -0.000954 0.000238 -0.002339 -76.476379 -0.002339 342.234741
3 342.234741 -0.000954 0.000238 -0.002336 -78.148361 -0.002336 342.234741
[R_Toe2_03]
1 420.210846 0.000715 -0.000268 -179.983978 85.382217 -179.987488 420.210846
2 420.210846 0.000715 -0.000268 -179.990311 81.695221 -179.993820 420.210846
3 420.210846 0.000715 -0.000268 -179.993958 74.566307 -179.997482 420.210846
[R_Toe3_02]
1 329.270355 -0.000477 -0.000954 0.001179 -79.331924 0.001179 329.270355
2 329.270355 -0.000477 -0.000954 0.001178 -80.150345 0.001178 329.270355
3 329.270355 -0.000477 -0.000954 0.001177 -81.501373 0.001177 329.270355
[R_Toe3_03]
1 439.137939 0.000238 0.001431 -179.992615 82.791672 -179.989105 439.137939
2 439.137939 0.000238 0.001431 -179.995300 79.806046 -179.991791 439.137939
3 439.137939 0.000238 0.001431 -179.997589 74.162827 -179.994064 439.137939
[Rear_Leg02]
1 1162.777710 -0.029802 0.005960 28.702606 -13.147287 -110.889740 1162.777710
2 1162.777710 -0.029802 0.005960 30.027617 -8.549090 -117.221115 1162.777710
3 1162.777710 -0.029802 0.005960 30.358528 -2.995027 -124.499954 1162.777710
[Rear_Leg03]
1 607.192505 -0.013351 -0.073195 0.009958 -0.006082 79.188560 607.192505
2 607.192505 -0.013351 -0.073195 0.009891 -0.006190 80.432884 607.192505
3 607.192505 -0.013351 -0.073195 0.009848 -0.006259 81.231888 607.192505
[Rear_Leg04]
1 995.874512 -0.020504 -0.011921 -0.044271 -0.014310 98.330856 995.874573
2 995.874512 -0.020504 -0.011921 -0.042019 -0.015633 105.004150 995.874573
3 995.874512 -0.020504 -0.011921 -0.041053 -0.011302 113.073410 995.874573
[Rear_Foot]
1 3096.176270 -0.067472 -0.041425 -69.958168 58.785343 65.794716 3096.176270
2 3096.176270 -0.067472 -0.041425 -61.901943 58.034744 70.987770 3096.176270
3 3096.176270 -0.067472 -0.041425 -58.393097 56.956287 79.009430 3096.176270
[planeAlignerCenter]
1 -0.155764 245.537415 -761.827759 0.001660 -0.001660 179.998337 800.418823
2 0.754647 248.462219 -759.880676 0.001660 -0.001660 179.998337 799.470215
3 2.920182 255.923920 -756.842834 0.001660 -0.001660 179.998337 798.947266
[Rear_Toe1_01]
1 0.653352 83.966492 -371.173737 0.094658 39.642590 90.039101 380.553192
2 0.653352 83.966492 -371.173737 0.094222 39.643505 90.040459 380.553192
3 0.653352 83.966492 -371.173737 0.093789 39.644444 90.041840 380.553192
[Rear_Toe2_01]
1 178.200760 -294.826019 -362.060547 62.153034 84.605148 -8.520371 499.765686
2 178.200760 -294.826019 -362.060547 59.824467 84.287285 -10.782640 499.765686
3 178.200760 -294.826019 -362.060547 53.791611 83.391998 -16.635067 499.765686
[Rear_Toe3_01]
1 -153.359680 -308.780914 -362.060852 -63.931393 83.953506 -175.451019 499.952881
2 -153.359680 -308.780914 -362.060852 -61.759972 83.624466 -173.356445 499.952881
3 -153.359680 -308.780914 -362.060852 -56.234276 82.718376 -168.035324 499.952881
[planeLockWeightCenter]
1 -0.000005 0.000610 0.000000 -0.011814 -0.004373 -0.000015 0.000610
2 -0.000001 0.000305 0.000000 -0.011814 -0.004373 -0.000015 0.000305
3 0.000002 0.000000 0.000000 -0.011814 -0.004373 -0.000015 0.000002
[Rear_Toe1_02]
1 379.707825 0.194073 0.000477 -0.002653 -32.258087 -0.002653 379.707855
2 379.707825 0.194073 0.000477 -0.002650 -32.457455 -0.002650 379.707855
3 379.707825 0.194073 0.000477 -0.002648 -32.656834 -0.002648 379.707855
[Rear_Toe1_03]
1 500.129700 0.165701 0.000119 -179.984222 85.301506 -179.987732 500.129761
2 500.129700 0.165701 0.000119 -179.980759 86.232925 -179.984268 500.129761
3 500.129700 0.165701 0.000119 -179.950485 88.620720 -179.953979 500.129761
[Rear_Toe2_02]
1 340.494507 0.000238 -0.000954 179.998825 -87.344498 179.998825 340.494507
2 340.494507 0.000238 -0.000954 179.998825 -87.541222 179.998825 340.494507
3 340.494507 0.000238 -0.000954 179.998825 -87.737907 179.998825 340.494507
[Rear_Toe2_03]
1 433.103577 0.000000 0.000238 -179.996231 55.377346 -179.999893 433.103546
2 433.103577 0.000000 0.000238 -179.996216 55.667976 -179.999878 433.103546
3 433.103577 0.000000 0.000238 -179.996185 56.575912 -179.999832 433.103546
[Rear_Toe3_02]
1 340.494141 -0.000358 -0.000477 -179.994171 -87.385513 -179.994171 340.494171
2 340.494141 -0.000358 -0.000477 -179.995346 -87.593842 -179.995346 340.494171
3 340.494141 -0.000358 -0.000477 -179.996506 -87.801537 -179.996506 340.494171
[Rear_Toe3_03]
1 433.103577 0.001431 -0.000238 179.992371 55.623230 179.999695 433.103546
2 433.103577 0.001431 -0.000238 179.992340 55.936588 179.999649 433.103546
3 433.103577 0.001431 -0.000238 179.992233 56.890667 179.999527 433.103546
[Back_Bone]
1 1312.175781 -701.934692 0.000954 -2.876992 1.429053 -84.242424 1488.125488
2 1312.175781 -701.934692 0.000954 -3.016175 1.111372 -84.530403 1488.125488
3 1312.175781 -701.934692 0.000954 -3.153744 0.792996 -84.817581 1488.125488
[Head]
1 1406.159424 809.709290 0.001431 -1.529441 2.460027 2.902872 1622.625488
2 1406.159424 809.709290 0.001431 -1.724004 2.452289 2.720722 1622.625488
3 1406.159424 809.709290 0.001431 -1.918542 2.443934 2.538600 1622.625488
[Motor_Bone]
1 1158.364380 -417.834747 0.000477 -2.687934 0.131929 -105.851517 1231.419434
2 1158.364380 -417.834747 0.000477 -5.513655 1.191246 -104.796577 1231.419434
3 1158.364380 -417.834747 0.000477 -3.495545 0.584006 -105.401466 1231.419434
[Ping_Mechanism]
1 1273.028442 -463.487549 -1.178837 0.000103 -0.000053 82.120995 1354.778076
2 1266.180420 -460.366516 -2.749443 0.000103 -0.000053 82.120995 1347.277832
3 1248.863281 -452.160950 -6.022034 0.000103 -0.000053 82.120995 1328.211304
[BN_LookIK]
1 193.241119 1380.371704 -0.002861 0.000000 89.965736 -31.038179 1393.832153
2 193.241119 1380.371704 -0.002861 0.000000 89.965736 -31.038179 1393.832153
3 193.241119 1380.371704 -0.002861 0.000000 89.965736 -31.038179 1393.832153
[bottomMouth]
1 -435.092926 615.759399 -0.000954 -0.000022 0.000016 73.527184 753.966492
2 -435.092926 615.759399 -0.000954 -0.000022 0.000016 73.527184 753.966492
3 -435.092926 615.759399 -0.000954 -0.000022 0.000016 73.527184 753.966492
[L_Mouth01]
1 554.440979 7.658243 838.222046 150.204178 23.759130 109.605339 1005.027161
2 554.440979 7.658243 838.222046 150.204178 23.759130 109.605339 1005.027161
3 554.440979 7.658243 838.222046 150.204178 23.759130 109.605339 1005.027161
[L_mouthFront]
1 551.629089 934.514771 339.150421 0.000081 2.804060 79.119301 1136.941284
2 551.629089 934.514771 339.150421 0.000081 2.804060 79.119301 1136.941284
3 551.629089 934.514771 339.150421 0.000081 2.804060 79.119301 1136.941284
[mouthGun]
1 55.332661 1627.420898 0.000000 0.000023 0.000009 -11.038128 1628.361328
2 55.332661 1627.420898 0.000000 0.000023 0.000009 -11.038128 1628.361328
3 55.332661 1627.420898 0.000000 0.000023 0.000009 -11.038128 1628.361328
[R_Mouth01]
1 554.442383 7.659197 -838.223938 29.795891 -23.759109 109.605331 1005.029541
2 554.442383 7.659197 -838.223938 29.795891 -23.759109 109.605331 1005.029541
3 554.442383 7.659197 -838.223938 29.795891 -23.759109 109.605331 1005.029541
[R_mouthFront]
1 551.629089 934.514282 -339.151367 0.000029 -2.803930 79.119133 1136.941162
2 551.629089 934.514282 -339.151367 0.000029 -2.803930 79.119133 1136.941162
3 551.629089 934.514282 -339.151367 0.000029 -2.803930 79.119133 1136.941162
[TopMouth]
1 461.269867 -56.106091 -0.008583 -0.000059 -0.000268 92.025169 464.669525
2 461.269867 -56.106091 -0.008583 -0.000059 -0.000268 92.025169 464.669525
3 461.269867 -56.106091 -0.008583 -0.000059 -0.000268 92.025169 464.669525
[weapon_bone]
1 -987.239868 1448.372803 0.001431 0.000000 89.965736 -31.038221 1752.833740
2 -987.239868 1448.372803 0.001431 0.000000 89.965736 -31.038221 1752.833740
3 -987.239868 1448.372803 0.001431 0.000000 89.965736 -31.038221 1752.833740
